<?xml version="1.0" encoding="UTF-8"?>
<svg width="32px" height="32px" viewBox="0 0 32 32" version="1.1" xmlns="http://www.w3.org/2000/svg">
    <title>Houston Oil Supply</title>
    <g stroke="none" stroke-width="1" fill="none" fill-rule="evenodd">
        <circle fill="#0284C7" cx="16" cy="16" r="16"></circle>
        <path d="M10,8 L10,24 L14,24 L14,18 L18,18 L18,24 L22,24 L22,8 L18,8 L18,14 L14,14 L14,8 L10,8 Z" fill="#FFFFFF"></path>
        <path d="M8,22 C8,20.8954305 8.8954305,20 10,20 C11.1045695,20 12,20.8954305 12,22 C12,23.1045695 11.1045695,24 10,24 C8.8954305,24 8,23.1045695 8,22 Z" fill="#F59E0B"></path>
        <path d="M20,22 C20,20.8954305 20.8954305,20 22,20 C23.1045695,20 24,20.8954305 24,22 C24,23.1045695 23.1045695,24 22,24 C20.8954305,24 20,23.1045695 20,22 Z" fill="#F59E0B"></path>
    </g>
</svg>
